<?xml version="1.0" standalone="no"?>
<!DOCTYPE svg PUBLIC "-//W3C//DTD SVG 20010904//EN"
 "http://www.w3.org/TR/2001/REC-SVG-20010904/DTD/svg10.dtd">
<svg version="1.0" xmlns="http://www.w3.org/2000/svg"
 width="512.000000pt" height="512.000000pt" viewBox="0 0 512.000000 512.000000"
 preserveAspectRatio="xMidYMid meet">

<g transform="translate(0.000000,512.000000) scale(0.100000,-0.100000)"
fill="#000000" stroke="none">
<path d="M2205 5106 c-140 -35 -269 -154 -305 -280 l-13 -46 -521 0 c-287 0
-547 -4 -580 -10 -162 -26 -295 -144 -341 -302 -14 -49 -16 -104 -13 -395 l3
-338 32 -67 c52 -110 142 -194 246 -229 l52 -18 3 -685 2 -686 -132 0 c-164 0
-233 -11 -312 -48 -101 -49 -178 -137 -217 -250 -17 -51 -19 -89 -19 -472 0
-383 2 -421 19 -472 39 -113 116 -201 217 -250 79 -37 148 -48 312 -48 l132 0
0 -68 c0 -218 141 -392 349 -432 74 -14 2808 -14 2882 0 208 40 349 214 349
432 l0 68 133 0 c163 0 232 11 311 48 101 49 178 137 217 250 17 51 19 89 19
472 0 383 -2 421 -19 472 -39 113 -116 201 -217 250 -79 37 -148 48 -312 48
l-132 0 2 686 3 685 52 18 c104 35 194 119 246 229 l32 67 3 338 c3 291 1 346
-13 395 -46 158 -179 276 -341 302 -33 6 -293 10 -580 10 l-521 0 -13 46 c-37
131 -174 252 -318 283 -75 16 -631 13 -697 -3z m688 -170 c21 -8 52 -24 70
-36 34 -23 87 -90 87 -109 0 -8 -143 -11 -490 -11 -347 0 -490 3 -490 11 0 19
53 86 87 109 68 46 91 49 403 49 222 0 304 -3 333 -13z m-1613 -842 l0 -516
-242 4 c-267 4 -282 7 -353 69 -21 19 -49 56 -61 84 -23 49 -24 57 -24 356 0
205 4 317 12 340 16 47 57 103 95 129 62 42 105 49 346 49 l227 1 0 -516z
m340 1 l0 -515 -85 0 -85 0 0 515 0 515 85 0 85 0 0 -515z m1708 3 l-3 -513
-765 0 -765 0 -3 513 -2 512 770 0 770 0 -2 -512z m342 -3 l0 -515 -85 0 -85
0 0 515 0 515 85 0 85 0 0 -515z m700 489 c53 -24 102 -72 127 -123 16 -32 18
-72 21 -353 3 -306 2 -319 -19 -368 -12 -27 -39 -66 -61 -86 -72 -65 -86 -68
-355 -72 l-243 -4 0 517 0 516 243 -3 c221 -3 246 -5 287 -24z m-3090 -1429
l0 -255 -57 0 c-61 -1 -82 -10 -101 -47 -19 -35 -14 -63 17 -94 25 -25 37 -29
84 -29 l54 0 5 -77 c7 -122 54 -193 156 -241 43 -19 65 -23 110 -20 148 11
242 118 242 275 l0 63 51 0 c79 0 118 29 119 88 0 53 -39 82 -111 82 l-59 0 0
255 0 255 770 0 770 0 0 -255 0 -255 -59 0 c-72 0 -111 -29 -111 -82 1 -59 40
-88 119 -88 l51 0 0 -63 c0 -157 94 -264 242 -275 45 -3 67 1 110 20 102 48
149 119 156 241 l5 77 54 0 c47 0 59 4 84 29 31 31 36 59 17 94 -19 37 -40 46
-100 47 l-58 0 0 255 0 255 170 0 170 0 0 -1517 0 -1518 -24 -50 c-27 -58 -65
-99 -121 -129 l-40 -21 -1435 0 -1435 0 -40 21 c-56 30 -94 71 -121 129 l-24
50 0 1518 0 1517 170 0 170 0 0 -255z m340 0 l0 -255 -85 0 -85 0 0 255 0 255
85 0 85 0 0 -255z m2050 0 l0 -255 -85 0 -85 0 0 255 0 255 85 0 85 0 0 -255z
m-2050 -482 c-1 -61 -10 -82 -47 -101 -35 -19 -63 -14 -94 17 -25 26 -29 37
-29 85 l0 56 85 0 85 0 0 -57z m2050 1 c0 -48 -4 -59 -29 -85 -31 -31 -59 -36
-94 -17 -37 19 -46 40 -47 101 l0 57 85 0 85 0 0 -56z m-2900 -1395 l0 -601
-157 4 c-176 4 -220 16 -281 77 -69 69 -67 55 -70 486 -2 215 0 409 3 431 7
52 53 121 100 153 56 38 118 50 268 50 l137 1 0 -601z m3940 575 c51 -23 102
-70 128 -118 15 -28 17 -73 17 -456 0 -471 3 -451 -67 -521 -61 -61 -105 -73
-280 -77 l-158 -4 0 602 0 602 158 -4 c131 -3 164 -7 202 -24z"/>
<path d="M1334 1870 c-56 -22 -54 6 -54 -762 l0 -707 24 -28 24 -28 1232 0
1232 0 24 28 24 28 0 709 0 709 -24 28 -24 28 -1219 2 c-674 1 -1228 -2 -1239
-7z m2322 -212 c-23 -171 -150 -376 -300 -482 -159 -113 -266 -145 -522 -153
l-181 -6 -6 62 c-7 78 -32 111 -87 111 -55 0 -80 -33 -87 -111 l-6 -62 -181 6
c-256 8 -363 40 -522 153 -150 106 -277 311 -300 482 l-7 52 1103 0 1103 0 -7
-52z m-2141 -482 c100 -121 265 -227 432 -280 95 -30 238 -46 404 -46 l119 0
0 -32 c0 -67 19 -109 56 -124 29 -12 39 -12 68 0 37 15 56 57 56 124 l0 32
119 0 c166 0 309 16 404 46 167 53 332 159 432 280 27 32 53 63 57 69 4 5 8
-158 8 -363 l0 -372 -1110 0 -1110 0 0 372 c0 205 4 368 8 363 4 -6 30 -37 57
-69z"/>
</g>
</svg>
