<?xml version="1.0" standalone="no"?>
<!DOCTYPE svg PUBLIC "-//W3C//DTD SVG 20010904//EN"
 "http://www.w3.org/TR/2001/REC-SVG-20010904/DTD/svg10.dtd">
<svg version="1.0" xmlns="http://www.w3.org/2000/svg"
 width="512.000000pt" height="512.000000pt" viewBox="0 0 512.000000 512.000000"
 preserveAspectRatio="xMidYMid meet">

<g transform="translate(0.000000,512.000000) scale(0.100000,-0.100000)"
fill="#000000" stroke="none">
<path d="M3696 5097 c-21 -12 -47 -38 -57 -57 -18 -33 -19 -76 -19 -867 l0
-833 -72 0 c-86 0 -132 -19 -165 -69 -48 -71 -20 -175 57 -213 31 -16 69 -18
330 -18 329 0 343 2 387 69 48 71 20 175 -57 213 -24 12 -58 18 -107 18 l-73
0 0 335 0 334 543 3 c492 3 545 5 574 20 62 34 93 100 78 168 -4 17 -61 101
-131 191 -68 88 -124 162 -124 164 0 3 51 76 114 164 132 184 146 208 146 253
0 46 -38 107 -80 129 -33 18 -70 19 -670 19 l-635 0 -39 -23z m974 -283 c0 -3
-32 -50 -71 -105 -106 -148 -105 -179 8 -321 29 -37 53 -69 53 -72 0 -4 -166
-6 -370 -6 l-370 0 0 255 0 255 375 0 c206 0 375 -3 375 -6z"/>
<path d="M2470 4869 c-120 -23 -260 -130 -309 -236 l-24 -51 -391 -4 c-445 -5
-469 -9 -643 -93 -228 -111 -391 -306 -470 -562 -27 -87 -27 -90 -28 -388 0
-264 2 -309 19 -375 96 -377 404 -646 786 -686 l65 -7 24 -51 c55 -114 196
-215 331 -236 180 -27 374 70 459 230 l32 60 622 0 c673 0 699 -2 811 -55 112
-53 211 -145 272 -254 l19 -33 -30 -22 c-244 -172 -286 -480 -95 -689 26 -29
64 -62 84 -72 20 -11 36 -24 36 -30 0 -25 -64 -117 -119 -172 -72 -72 -192
-138 -289 -158 -49 -11 -144 -15 -357 -15 l-290 0 -34 65 c-88 171 -300 268
-490 224 -121 -27 -254 -132 -302 -236 l-23 -52 -212 -3 c-233 -3 -238 -5
-288 -71 -27 -37 -27 -117 0 -154 50 -66 55 -68 288 -71 l212 -3 23 -52 c31
-67 130 -164 203 -200 216 -104 482 -19 589 188 l34 65 290 0 c322 0 387 7
519 51 235 78 445 275 537 503 13 32 31 60 39 63 8 2 43 18 78 34 174 81 277
279 244 470 -16 92 -69 194 -132 253 -41 39 -137 94 -190 109 -8 3 -26 31 -39
63 -82 204 -267 393 -471 479 -168 72 -134 69 -870 73 l-665 3 -34 64 c-76
147 -224 235 -397 235 -174 0 -318 -90 -401 -251 l-27 -51 -45 7 c-201 28
-370 151 -456 330 -24 49 -49 117 -54 149 -6 33 -11 157 -11 276 0 183 3 229
20 294 51 201 202 362 400 428 61 21 86 22 440 25 l375 3 23 -50 c29 -62 110
-152 169 -187 66 -38 156 -63 233 -63 77 0 167 25 233 63 58 35 141 126 169
188 l23 49 125 0 c99 0 132 4 159 18 108 54 105 209 -4 262 -34 17 -62 20
-161 20 l-121 0 -24 52 c-33 73 -120 158 -199 196 -99 48 -188 61 -290 41z
m143 -303 c67 -27 108 -105 92 -175 -10 -45 -63 -98 -108 -106 -59 -11 -107 3
-143 41 -54 57 -57 135 -7 195 46 55 105 71 166 45z m-641 -1813 c36 -22 64
-66 73 -113 4 -26 0 -47 -17 -80 -72 -140 -278 -93 -278 65 0 55 43 121 90
138 33 12 103 6 132 -10z m2348 -904 c44 -25 80 -83 80 -129 0 -72 -77 -150
-149 -150 -51 0 -108 35 -131 80 -39 76 -16 156 56 197 49 28 96 29 144 2z
m-1690 -899 c45 -23 80 -80 80 -131 0 -74 -76 -149 -151 -149 -46 0 -108 39
-130 82 -37 72 -14 151 57 194 48 29 92 30 144 4z"/>
<path d="M595 2216 c-282 -66 -494 -269 -572 -546 -29 -104 -24 -337 11 -505
82 -392 257 -730 545 -1054 133 -148 209 -148 342 0 288 324 463 662 545 1054
35 168 40 401 11 505 -71 253 -264 452 -512 530 -90 28 -281 36 -370 16z m270
-302 c154 -40 281 -168 321 -324 44 -171 -26 -516 -162 -800 -56 -117 -174
-302 -239 -375 l-35 -40 -35 40 c-65 73 -183 258 -239 375 -97 202 -159 424
-173 619 -11 157 26 275 117 373 115 126 282 175 445 132z"/>
<path d="M682 1613 c-106 -52 -106 -210 2 -262 53 -26 79 -26 131 -1 56 27 89
86 83 145 -12 105 -121 165 -216 118z"/>
</g>
</svg>
