<?xml version="1.0" standalone="no"?>
<!DOCTYPE svg PUBLIC "-//W3C//DTD SVG 20010904//EN"
 "http://www.w3.org/TR/2001/REC-SVG-20010904/DTD/svg10.dtd">
<svg version="1.0" xmlns="http://www.w3.org/2000/svg"
 width="512.000000pt" height="512.000000pt" viewBox="0 0 512.000000 512.000000"
 preserveAspectRatio="xMidYMid meet">

<g transform="translate(0.000000,512.000000) scale(0.100000,-0.100000)"
fill="#000000" stroke="none">
<path d="M133 4815 c-55 -28 -99 -77 -119 -134 -11 -29 -13 -376 -14 -1722 0
-1506 2 -1690 16 -1732 19 -57 95 -131 150 -146 27 -7 314 -11 897 -11 l857 0
0 -134 0 -133 -61 -6 c-117 -10 -206 -83 -228 -187 -6 -28 -11 -98 -11 -156 0
-109 13 -155 45 -168 9 -3 415 -6 901 -6 862 0 884 0 903 19 28 28 34 75 29
204 -4 100 -7 118 -33 165 -45 83 -129 132 -227 132 l-38 0 0 135 0 135 858 0
c587 0 870 4 897 11 53 14 136 99 153 155 18 62 17 3393 -2 3445 -20 57 -64
106 -119 134 l-51 25 -2376 0 -2376 0 -51 -25z m4802 -160 l25 -24 0 -1676 0
-1676 -25 -24 -24 -25 -2351 0 -2351 0 -24 25 -25 24 0 1676 0 1676 25 24 24
25 2351 0 2351 0 24 -25z m-1895 -3720 l0 -135 -480 0 -480 0 0 135 0 135 480
0 480 0 0 -135z m267 -319 c25 -21 28 -31 31 -100 l4 -76 -782 0 -782 0 4 76
c3 69 6 79 31 100 l28 24 719 0 719 0 28 -24z"/>
<path d="M345 4485 l-25 -24 0 -1371 0 -1371 25 -24 24 -25 2191 0 2191 0 24
25 25 24 0 1371 0 1371 -25 24 -24 25 -2191 0 -2191 0 -24 -25z m4295 -1395
l0 -1260 -2080 0 -2080 0 0 1260 0 1260 2080 0 2080 0 0 -1260z"/>
<path d="M1295 4176 c-254 -59 -462 -237 -554 -475 -41 -107 -55 -195 -49
-320 16 -320 230 -593 543 -691 95 -30 273 -38 372 -17 156 34 273 98 388 212
114 115 178 232 212 388 21 99 13 277 -17 372 -78 247 -267 437 -515 515 -89
28 -290 37 -380 16z m85 -434 l0 -277 -204 -204 -203 -203 -22 30 c-121 170
-133 429 -29 625 41 77 154 193 232 237 65 37 156 69 199 69 l27 1 0 -278z
m295 247 c116 -43 241 -151 306 -263 32 -56 69 -164 69 -202 l0 -24 -255 0
-255 0 0 261 0 262 40 -7 c22 -3 65 -15 95 -27z m375 -674 c0 -36 -43 -147
-81 -211 -74 -122 -225 -231 -374 -269 -151 -38 -353 -2 -477 86 l-30 22 198
198 199 199 282 0 283 0 0 -25z"/>
<path d="M3940 4137 c-48 -24 -50 -38 -50 -410 l0 -348 -107 3 -108 3 -3 250
c-2 239 -3 250 -24 272 -21 23 -25 23 -243 23 -283 0 -263 14 -267 -195 l-3
-150 -165 -3 c-221 -3 -210 7 -210 -203 l0 -158 -171 -3 c-226 -4 -209 17
-209 -258 0 -190 2 -210 19 -231 l19 -24 987 0 987 0 19 24 c18 22 19 48 19
691 0 368 -3 676 -6 685 -15 38 -55 45 -261 45 -139 0 -205 -4 -223 -13z m330
-712 l0 -565 -110 0 -110 0 0 558 c0 307 3 562 7 565 3 4 53 7 110 7 l103 0 0
-565z m-760 -110 l0 -456 -107 3 -108 3 -3 453 -2 452 110 0 110 0 0 -455z
m-380 -175 l0 -280 -105 0 -105 0 0 280 0 280 105 0 105 0 0 -280z m760 -100
l0 -181 -107 3 -108 3 -3 178 -2 177 110 0 110 0 0 -180z m-1135 -80 l0 -95
-107 -3 -108 -3 0 101 0 101 108 -3 107 -3 0 -95z"/>
<path d="M910 2556 c-131 -35 -212 -143 -212 -282 1 -244 292 -374 476 -213
173 153 106 438 -116 496 -63 16 -88 16 -148 -1z m124 -160 c95 -40 104 -177
16 -230 -61 -36 -155 -7 -180 55 -29 70 -5 138 61 171 41 22 59 22 103 4z"/>
<path d="M2918 2557 c-120 -34 -208 -149 -208 -273 0 -89 24 -150 85 -210 65
-65 129 -89 224 -82 290 21 367 416 106 543 -63 31 -143 40 -207 22z m152
-175 c106 -78 52 -232 -81 -232 -35 0 -48 6 -80 39 -33 33 -39 45 -39 82 0
111 114 174 200 111z"/>
<path d="M1425 2485 c-16 -15 -25 -36 -25 -55 0 -19 9 -40 25 -55 l24 -25 439
0 c422 0 439 1 459 20 12 10 24 29 28 40 10 30 -12 75 -41 89 -17 8 -157 11
-455 11 l-430 0 -24 -25z"/>
<path d="M3435 2485 c-16 -15 -25 -36 -25 -55 0 -19 9 -40 25 -55 l24 -25 441
0 441 0 24 25 c16 15 25 36 25 55 0 19 -9 40 -25 55 l-24 25 -441 0 -441 0
-24 -25z"/>
<path d="M1451 2199 c-54 -22 -69 -89 -28 -127 23 -22 25 -22 466 -22 l442 0
24 25 c32 31 32 66 1 102 l-24 28 -429 2 c-263 1 -437 -2 -452 -8z"/>
<path d="M3464 2200 c-28 -11 -54 -48 -54 -76 0 -12 9 -33 21 -48 l20 -26 449
0 449 0 20 26 c28 35 26 67 -3 101 l-24 28 -429 2 c-235 1 -438 -2 -449 -7z"/>
<path d="M2356 1509 c-35 -27 -36 -86 -3 -117 22 -21 32 -22 208 -22 181 0
186 1 207 23 32 34 30 89 -4 116 -25 19 -40 21 -204 21 -164 0 -179 -2 -204
-21z"/>
</g>
</svg>
