<?xml version="1.0" standalone="no"?>
<!DOCTYPE svg PUBLIC "-//W3C//DTD SVG 20010904//EN"
 "http://www.w3.org/TR/2001/REC-SVG-20010904/DTD/svg10.dtd">
<svg version="1.0" xmlns="http://www.w3.org/2000/svg"
 width="512.000000pt" height="512.000000pt" viewBox="0 0 512.000000 512.000000"
 preserveAspectRatio="xMidYMid meet">

<g transform="translate(0.000000,512.000000) scale(0.100000,-0.100000)"
fill="#000000" stroke="none">
<path d="M511 3984 c-159 -43 -292 -181 -336 -349 -23 -88 -23 -2061 0 -2149
45 -170 162 -296 324 -346 62 -20 104 -20 2061 -20 1973 0 1999 0 2063 20 163
50 291 191 326 358 8 37 11 359 11 1065 0 1105 2 1063 -57 1184 -33 68 -121
158 -190 195 -113 62 22 58 -2158 57 -1710 0 -1998 -2 -2044 -15z m4049 -326
c18 -13 43 -36 54 -51 21 -28 21 -29 21 -1047 0 -1018 0 -1019 -21 -1047 -11
-15 -36 -38 -54 -51 l-33 -22 -1967 0 -1967 0 -33 23 c-18 12 -43 35 -54 50
-21 28 -21 29 -21 1047 0 1018 0 1019 21 1047 11 15 36 38 54 51 l33 22 1967
0 1967 0 33 -22z"/>
<path d="M935 3395 c-5 -2 -22 -6 -37 -9 -66 -15 -137 -112 -138 -189 -1 -214
302 -273 385 -75 37 91 -6 207 -95 253 -27 13 -98 26 -115 20z"/>
<path d="M1575 3395 c-5 -2 -22 -6 -37 -9 -66 -15 -137 -112 -138 -189 -1
-214 302 -273 385 -75 37 91 -6 207 -95 253 -27 13 -98 26 -115 20z"/>
<path d="M2215 3395 c-5 -2 -22 -6 -37 -9 -66 -15 -137 -112 -138 -189 -1
-214 302 -273 385 -75 37 91 -6 207 -95 253 -27 13 -98 26 -115 20z"/>
<path d="M2855 3395 c-5 -2 -22 -6 -37 -9 -66 -15 -137 -112 -138 -189 -1
-214 302 -273 385 -75 37 91 -6 207 -95 253 -27 13 -98 26 -115 20z"/>
<path d="M3495 3395 c-5 -2 -22 -6 -37 -9 -66 -15 -137 -112 -138 -189 -1
-214 302 -273 385 -75 37 91 -6 207 -95 253 -27 13 -98 26 -115 20z"/>
<path d="M4135 3395 c-5 -2 -22 -6 -37 -9 -66 -15 -137 -112 -138 -189 -1
-214 302 -273 385 -75 37 91 -6 207 -95 253 -27 13 -98 26 -115 20z"/>
<path d="M935 2755 c-5 -2 -22 -6 -37 -9 -66 -15 -137 -112 -138 -189 -1 -214
302 -273 385 -75 37 91 -6 207 -95 253 -27 13 -98 26 -115 20z"/>
<path d="M1575 2755 c-5 -2 -22 -6 -37 -9 -66 -15 -137 -112 -138 -189 -1
-214 302 -273 385 -75 37 91 -6 207 -95 253 -27 13 -98 26 -115 20z"/>
<path d="M2215 2755 c-5 -2 -22 -6 -37 -9 -66 -15 -137 -112 -138 -189 -1
-214 302 -273 385 -75 37 91 -6 207 -95 253 -27 13 -98 26 -115 20z"/>
<path d="M2855 2755 c-5 -2 -22 -6 -37 -9 -66 -15 -137 -112 -138 -189 -1
-214 302 -273 385 -75 37 91 -6 207 -95 253 -27 13 -98 26 -115 20z"/>
<path d="M3495 2755 c-5 -2 -22 -6 -37 -9 -66 -15 -137 -112 -138 -189 -1
-214 302 -273 385 -75 37 91 -6 207 -95 253 -27 13 -98 26 -115 20z"/>
<path d="M4135 2755 c-5 -2 -22 -6 -37 -9 -66 -15 -137 -112 -138 -189 -1
-214 302 -273 385 -75 37 91 -6 207 -95 253 -27 13 -98 26 -115 20z"/>
<path d="M905 2065 c-100 -36 -136 -165 -68 -245 47 -57 63 -60 283 -60 224 0
248 5 291 63 33 44 34 142 3 184 -46 62 -70 68 -279 70 -146 2 -199 0 -230
-12z"/>
<path d="M1867 2066 c-49 -18 -64 -32 -89 -80 -37 -73 -13 -153 62 -204 l34
-22 697 2 698 3 32 30 c37 36 59 82 59 127 0 45 -38 108 -80 132 -34 21 -49
21 -705 23 -543 2 -677 0 -708 -11z"/>
<path d="M3787 2066 c-49 -18 -64 -32 -89 -80 -37 -73 -13 -153 62 -203 32
-22 42 -23 240 -23 198 0 208 1 240 23 47 31 71 67 77 115 7 55 -26 123 -75
154 -35 22 -49 23 -227 25 -142 2 -200 -1 -228 -11z"/>
</g>
</svg>
