<?xml version="1.0" standalone="no"?>
<!DOCTYPE svg PUBLIC "-//W3C//DTD SVG 20010904//EN"
 "http://www.w3.org/TR/2001/REC-SVG-20010904/DTD/svg10.dtd">
<svg version="1.0" xmlns="http://www.w3.org/2000/svg"
 width="512.000000pt" height="512.000000pt" viewBox="0 0 512.000000 512.000000"
 preserveAspectRatio="xMidYMid meet">

<g transform="translate(0.000000,512.000000) scale(0.100000,-0.100000)"
fill="#000000" stroke="none">
<path d="M3490 5114 c-52 -9 -147 -48 -197 -81 -88 -58 -150 -138 -193 -248
-21 -54 -24 -79 -27 -260 -4 -184 -6 -203 -26 -240 -19 -35 -22 -55 -22 -165
0 -111 3 -130 23 -168 25 -46 87 -97 131 -107 23 -5 29 -13 39 -61 21 -100 77
-200 158 -281 l74 -74 0 -55 c0 -87 -15 -106 -100 -126 l-72 -17 -49 34 c-27
18 -67 36 -89 40 -30 5 -40 11 -40 26 0 64 -88 169 -160 190 -22 7 -160 9
-385 7 l-350 -3 -78 -37 c-94 -45 -192 -135 -233 -212 l-27 -52 -86 21 c-96
24 -111 39 -110 110 0 37 4 43 60 85 104 77 184 201 213 329 10 46 18 58 42
70 45 21 82 60 99 105 14 35 15 96 13 421 l-3 380 -27 47 c-33 55 -77 85 -148
98 -30 6 -56 12 -59 15 -3 3 -22 36 -41 73 -37 71 -75 104 -139 122 -49 14
-964 13 -1013 0 -52 -15 -94 -53 -114 -105 -13 -36 -16 -69 -12 -168 4 -120 5
-128 41 -201 27 -53 53 -89 87 -118 44 -38 50 -47 50 -83 0 -38 -2 -41 -45
-59 -53 -21 -107 -80 -123 -135 -15 -48 -15 -203 -1 -256 13 -49 90 -127 138
-140 31 -9 35 -16 55 -85 33 -112 70 -176 152 -259 72 -74 74 -76 74 -126 -1
-84 -13 -95 -133 -126 -114 -30 -249 -82 -272 -106 -26 -26 -29 -62 -8 -91 28
-38 61 -38 156 -1 45 17 110 39 143 49 l62 18 48 -50 c103 -104 210 -149 355
-149 141 0 258 49 353 151 l46 49 55 -16 55 -16 0 -169 c0 -154 -2 -173 -22
-211 -24 -46 -36 -179 -24 -261 11 -71 58 -131 127 -164 32 -15 59 -33 59 -40
0 -33 54 -169 86 -220 20 -31 63 -82 95 -112 l59 -56 0 -60 c0 -76 -15 -97
-69 -101 -49 -3 -313 -114 -426 -178 -135 -77 -270 -202 -331 -304 l-18 -31
-358 0 -358 0 0 438 0 439 -23 21 c-31 29 -72 28 -102 -3 l-25 -24 0 -436 0
-435 -105 0 c-67 0 -118 5 -138 14 -42 17 -83 66 -97 114 -13 48 -13 976 0
1091 18 160 76 288 183 409 57 64 63 108 21 141 -39 31 -59 26 -116 -26 -96
-90 -174 -229 -216 -382 l-26 -96 -1 -575 c0 -533 1 -579 18 -628 25 -70 101
-152 169 -183 l53 -24 524 -3 523 -3 -6 -22 c-36 -122 -40 -165 -40 -472 -1
-274 1 -314 16 -348 28 -62 73 -111 130 -143 l53 -29 1115 0 1115 0 53 29 c30
17 67 47 83 67 54 69 62 101 63 252 l1 139 -28 24 c-34 29 -56 30 -91 3 -25
-20 -26 -24 -26 -127 0 -128 -10 -169 -51 -208 -29 -28 -34 -29 -140 -32
l-109 -4 0 155 c0 136 -2 158 -18 178 -27 33 -78 30 -109 -5 -22 -26 -23 -34
-23 -177 l0 -149 -695 0 -695 0 0 154 c0 169 -6 188 -62 202 -22 5 -33 0 -58
-24 l-30 -30 0 -152 0 -152 -134 4 c-134 3 -135 3 -166 33 -49 47 -53 81 -47
380 6 304 14 350 77 480 65 134 173 244 330 336 l85 49 14 -22 c8 -13 78 -87
155 -166 219 -222 253 -229 430 -82 l76 63 76 -63 c122 -101 166 -116 241 -85
40 17 301 268 335 323 l20 33 67 -37 c97 -53 206 -139 263 -208 68 -85 126
-206 148 -317 10 -50 27 -100 36 -110 39 -43 124 -7 124 53 0 25 -21 132 -36
185 l-6 22 523 3 524 3 53 24 c68 31 144 113 169 183 17 49 18 96 18 613 0
505 -2 568 -18 645 -73 340 -330 594 -731 725 -56 18 -120 36 -144 40 -51 8
-72 40 -72 109 0 40 4 47 34 65 19 12 62 52 97 89 82 86 122 167 153 303 4 17
15 29 30 33 38 9 82 52 100 97 15 37 16 80 11 388 -3 192 -11 365 -17 389 -19
77 -99 147 -189 166 -21 5 -28 14 -33 39 -10 55 -60 123 -113 154 l-48 28
-330 1 c-181 1 -341 0 -355 -2z m668 -169 c20 -16 31 -38 36 -64 13 -86 51
-124 136 -134 32 -4 52 -14 67 -32 22 -25 23 -34 23 -211 0 -180 0 -184 -21
-184 -32 0 -77 51 -84 96 -13 87 -28 119 -70 160 -30 29 -57 45 -93 54 -84 20
-136 1 -236 -84 -124 -105 -241 -171 -366 -205 -58 -16 -104 -21 -203 -21
l-129 0 4 193 c3 183 4 195 30 249 45 96 138 174 235 197 21 5 174 9 340 10
l301 1 30 -25z m-2503 9 c9 -4 28 -32 41 -63 42 -95 86 -129 186 -146 65 -10
68 -23 68 -252 0 -112 -3 -203 -7 -203 -29 1 -94 54 -131 108 -24 34 -63 76
-88 92 -84 58 -96 60 -454 60 -180 0 -352 5 -381 10 -69 13 -125 52 -164 114
-27 44 -30 58 -33 152 -3 57 -2 111 2 119 5 13 65 15 475 15 258 0 477 -3 486
-6z m2481 -479 c15 -10 23 -30 28 -66 9 -68 26 -107 67 -154 39 -44 119 -85
167 -85 l33 0 -3 -87 -3 -88 -48 -5 c-26 -3 -54 -13 -63 -22 -9 -8 -19 -45
-24 -84 -23 -176 -108 -296 -265 -370 -138 -66 -276 -65 -413 2 -138 67 -229
188 -253 335 -6 35 -13 74 -15 87 -5 27 -56 52 -104 52 -52 0 -70 29 -70 113
l0 72 155 -3 c128 -2 169 1 240 17 146 35 299 117 436 233 85 72 100 78 135
53z m-2513 -98 c20 -11 51 -42 68 -68 55 -86 124 -137 213 -160 l47 -12 -3
-76 -3 -76 -30 -3 c-74 -7 -105 -39 -105 -107 0 -45 -32 -144 -63 -198 -36
-61 -126 -140 -200 -176 -178 -87 -386 -54 -537 86 -73 68 -114 147 -134 262
-17 100 -33 121 -93 121 -33 0 -50 6 -68 25 -23 22 -25 32 -25 108 0 107 13
127 88 135 70 6 92 33 92 111 l0 56 357 -3 c343 -3 359 -4 396 -25z m1301
-1020 c14 -14 26 -42 30 -69 11 -76 69 -128 141 -128 16 0 38 -12 56 -29 l29
-29 0 -185 0 -185 -44 -15 -44 -15 -4 117 c-3 95 -8 125 -27 164 -27 56 -86
109 -140 125 -53 16 -146 15 -205 -3 -64 -20 -193 -19 -274 1 -146 37 -264 0
-327 -100 -28 -47 -30 -56 -33 -170 -2 -67 -7 -124 -10 -128 -4 -4 -26 2 -50
12 l-44 20 4 187 c3 183 4 190 32 251 36 77 114 152 189 181 48 18 76 20 375
20 l323 1 23 -23z m722 -17 c78 -30 264 -32 336 -5 12 5 17 -4 22 -36 4 -24
18 -64 33 -90 l25 -48 -21 -27 c-59 -75 -131 -107 -241 -108 -73 0 -92 4 -136
26 -46 24 -124 93 -124 109 0 4 11 27 25 50 14 24 28 65 31 92 7 51 9 52 50
37z m-2426 -26 c81 -17 157 -17 237 -1 l61 13 7 -35 c4 -20 17 -55 30 -78 l23
-42 -36 -32 c-124 -109 -321 -108 -447 2 l-35 31 24 41 c13 23 27 61 31 85 6
35 10 42 23 37 10 -4 46 -13 82 -21z m2219 -269 c177 -234 567 -228 731 11 18
25 39 44 49 44 30 0 170 -49 257 -89 253 -119 411 -296 469 -526 16 -62 18
-135 22 -606 5 -574 4 -593 -44 -650 -38 -45 -80 -59 -173 -59 l-80 0 0 440
c0 427 -1 441 -20 460 -25 25 -71 26 -101 1 l-24 -19 -3 -441 -3 -441 -382 0
-382 0 -30 48 c-70 111 -236 248 -400 329 -130 65 -304 133 -344 136 -54 4
-71 25 -71 86 0 45 2 48 72 106 108 90 189 224 205 338 5 32 12 41 52 62 25
14 57 42 71 62 l25 37 -4 357 c-3 341 -2 357 15 362 42 11 53 5 93 -48z
m-1012 -90 c31 -8 100 -15 153 -15 53 0 122 7 153 15 32 8 76 15 98 15 89 0
109 -38 109 -210 0 -130 9 -164 52 -192 39 -26 80 -30 127 -13 70 25 71 24 71
-60 0 -82 -9 -95 -68 -95 -43 0 -64 -31 -74 -108 -16 -139 -74 -238 -184 -317
-155 -112 -336 -125 -508 -38 -65 33 -156 120 -189 181 -30 55 -57 150 -57
200 0 49 -37 82 -94 82 -65 0 -86 30 -86 122 0 52 3 69 13 66 112 -42 151 -50
186 -39 48 14 80 49 92 98 5 21 9 91 9 156 0 112 1 119 25 142 29 30 84 33
172 10z m178 -1221 c55 3 112 8 128 12 23 5 27 3 27 -15 0 -11 9 -44 20 -73
11 -29 20 -53 20 -54 0 -5 -233 -179 -240 -179 -5 0 -61 40 -125 89 -86 66
-114 94 -109 105 15 37 34 106 34 126 l0 21 73 -18 c57 -15 93 -18 172 -14z
m-320 -292 c61 -47 120 -94 132 -105 l22 -19 -66 -56 -65 -55 -139 139 -140
139 58 26 c32 15 64 24 73 21 8 -3 65 -44 125 -90z m802 45 c1 -2 -60 -65
-137 -142 l-139 -138 -60 52 c-34 29 -61 57 -61 61 0 10 248 204 270 212 12 4
114 -33 127 -45z"/>
</g>
</svg>
