<?xml version="1.0" standalone="no"?>
<!DOCTYPE svg PUBLIC "-//W3C//DTD SVG 20010904//EN"
 "http://www.w3.org/TR/2001/REC-SVG-20010904/DTD/svg10.dtd">
<svg version="1.0" xmlns="http://www.w3.org/2000/svg"
 width="512.000000pt" height="512.000000pt" viewBox="0 0 512.000000 512.000000"
 preserveAspectRatio="xMidYMid meet">

<g transform="translate(0.000000,512.000000) scale(0.100000,-0.100000)"
fill="#000000" stroke="none">
<path d="M2492 5100 c-18 -11 -41 -34 -52 -52 -19 -31 -20 -47 -18 -300 l3
-268 36 -36 c63 -62 163 -56 214 14 19 25 20 45 23 292 2 251 1 267 -18 298
-26 42 -76 72 -120 72 -19 0 -50 -9 -68 -20z"/>
<path d="M1203 4810 c-57 -34 -85 -102 -65 -159 15 -41 239 -410 270 -444 40
-42 91 -54 147 -33 61 24 90 66 90 131 0 46 -9 65 -131 265 -89 146 -142 222
-164 238 -41 28 -103 29 -147 2z"/>
<path d="M3770 4808 c-22 -16 -75 -92 -164 -238 -122 -200 -131 -219 -131
-265 0 -64 29 -107 89 -130 54 -21 110 -9 148 32 31 34 255 403 270 444 41
118 -108 228 -212 157z"/>
<path d="M226 3960 c-100 -31 -133 -162 -59 -232 16 -14 127 -81 249 -147 188
-103 227 -121 265 -121 85 0 139 57 139 146 0 40 -5 51 -37 83 -42 41 -450
266 -498 274 -16 3 -43 2 -59 -3z"/>
<path d="M4810 3956 c-63 -23 -465 -247 -482 -269 -47 -59 -40 -143 16 -194
31 -28 43 -33 87 -33 47 0 71 11 273 120 261 142 286 164 286 245 0 46 -4 59
-31 89 -17 20 -47 40 -67 46 -44 12 -39 12 -82 -4z"/>
<path d="M1635 3835 c-160 -35 -287 -105 -406 -224 -112 -112 -187 -244 -218
-381 -5 -25 -78 -540 -160 -1145 -83 -605 -153 -1114 -156 -1132 l-6 -32 -179
-3 -180 -3 -29 -30 c-22 -22 -65 -117 -166 -375 -116 -294 -136 -351 -132
-384 7 -49 33 -86 78 -108 32 -17 171 -18 2479 -18 2308 0 2447 1 2479 18 45
22 71 59 78 108 4 33 -16 91 -132 384 -75 190 -144 353 -153 364 -37 41 -65
46 -236 46 l-164 0 -6 27 c-3 16 -73 525 -156 1133 -83 608 -160 1138 -170
1178 -79 289 -321 514 -622 577 -97 21 -1750 21 -1843 0z m1790 -280 c188 -40
343 -179 395 -355 15 -49 320 -2214 320 -2269 0 -8 -472 -11 -1580 -11 -869 0
-1580 3 -1580 7 0 53 306 2226 320 2273 51 174 207 315 390 354 99 22 1634 22
1735 1z m1269 -3083 c36 -93 66 -174 66 -180 0 -9 -508 -12 -2200 -12 -1692 0
-2200 3 -2200 12 0 6 30 87 66 180 l66 168 2068 0 2068 0 66 -168z"/>
<path d="M2350 2888 c0 -139 52 -908 66 -975 4 -23 7 -23 144 -23 l139 0 5 43
c21 156 66 813 66 951 l0 166 -210 0 -210 0 0 -162z"/>
<path d="M2475 1706 c-139 -63 -166 -252 -52 -353 134 -117 346 -21 347 158 0
63 -40 139 -92 175 -33 23 -53 29 -107 31 -41 2 -77 -2 -96 -11z"/>
</g>
</svg>
